<mxfile host="app.diagrams.net" agent="Mozilla/5.0 (Macintosh; Intel Mac OS X 10_15_7) AppleWebKit/537.36 (KHTML, like Gecko) Chrome/131.0.0.0 Safari/537.36" version="25.0.3">
  <diagram name="第 1 页" id="NaCbn9TEH_h5Mn4dILMo">
    <mxGraphModel dx="2099" dy="743" grid="1" gridSize="10" guides="1" tooltips="1" connect="1" arrows="1" fold="1" page="1" pageScale="1" pageWidth="827" pageHeight="1169" math="0" shadow="0">
      <root>
        <mxCell id="0" />
        <mxCell id="1" parent="0" />
        <mxCell id="oKtfZRa2K4ia3sEcUGn5-4" value="" style="group" parent="1" vertex="1" connectable="0">
          <mxGeometry x="440" y="80" width="80" height="440" as="geometry" />
        </mxCell>
        <mxCell id="oKtfZRa2K4ia3sEcUGn5-1" value="原生" style="rounded=0;whiteSpace=wrap;html=1;" parent="oKtfZRa2K4ia3sEcUGn5-4" vertex="1">
          <mxGeometry width="80" height="40" as="geometry" />
        </mxCell>
        <mxCell id="oKtfZRa2K4ia3sEcUGn5-3" value="" style="endArrow=none;html=1;rounded=0;entryX=0.5;entryY=1;entryDx=0;entryDy=0;" parent="oKtfZRa2K4ia3sEcUGn5-4" target="oKtfZRa2K4ia3sEcUGn5-1" edge="1">
          <mxGeometry width="50" height="50" relative="1" as="geometry">
            <mxPoint x="40" y="440" as="sourcePoint" />
            <mxPoint x="320" y="190" as="targetPoint" />
          </mxGeometry>
        </mxCell>
        <mxCell id="oKtfZRa2K4ia3sEcUGn5-5" value="" style="group" parent="1" vertex="1" connectable="0">
          <mxGeometry x="280" y="80" width="80" height="440" as="geometry" />
        </mxCell>
        <mxCell id="oKtfZRa2K4ia3sEcUGn5-6" value="原生内嵌h5" style="rounded=0;whiteSpace=wrap;html=1;" parent="oKtfZRa2K4ia3sEcUGn5-5" vertex="1">
          <mxGeometry width="80" height="40" as="geometry" />
        </mxCell>
        <mxCell id="oKtfZRa2K4ia3sEcUGn5-7" value="" style="endArrow=none;html=1;rounded=0;entryX=0.5;entryY=1;entryDx=0;entryDy=0;" parent="oKtfZRa2K4ia3sEcUGn5-5" target="oKtfZRa2K4ia3sEcUGn5-6" edge="1">
          <mxGeometry width="50" height="50" relative="1" as="geometry">
            <mxPoint x="40" y="440" as="sourcePoint" />
            <mxPoint x="320" y="190" as="targetPoint" />
          </mxGeometry>
        </mxCell>
        <mxCell id="pdDL_CSuWHw4D4F-IhAH-1" value="" style="endArrow=classic;html=1;rounded=0;" edge="1" parent="oKtfZRa2K4ia3sEcUGn5-5">
          <mxGeometry width="50" height="50" relative="1" as="geometry">
            <mxPoint x="200" y="130" as="sourcePoint" />
            <mxPoint x="40" y="130" as="targetPoint" />
          </mxGeometry>
        </mxCell>
        <mxCell id="pdDL_CSuWHw4D4F-IhAH-2" value="调用onNotify" style="edgeLabel;html=1;align=center;verticalAlign=middle;resizable=0;points=[];" vertex="1" connectable="0" parent="pdDL_CSuWHw4D4F-IhAH-1">
          <mxGeometry x="-0.15" y="1" relative="1" as="geometry">
            <mxPoint x="-12" as="offset" />
          </mxGeometry>
        </mxCell>
        <mxCell id="oKtfZRa2K4ia3sEcUGn5-8" value="" style="group" parent="1" vertex="1" connectable="0">
          <mxGeometry x="120" y="80" width="80" height="440" as="geometry" />
        </mxCell>
        <mxCell id="oKtfZRa2K4ia3sEcUGn5-9" value="h5内嵌IM" style="rounded=0;whiteSpace=wrap;html=1;" parent="oKtfZRa2K4ia3sEcUGn5-8" vertex="1">
          <mxGeometry width="80" height="40" as="geometry" />
        </mxCell>
        <mxCell id="oKtfZRa2K4ia3sEcUGn5-10" value="" style="endArrow=none;html=1;rounded=0;entryX=0.5;entryY=1;entryDx=0;entryDy=0;" parent="oKtfZRa2K4ia3sEcUGn5-8" target="oKtfZRa2K4ia3sEcUGn5-9" edge="1">
          <mxGeometry width="50" height="50" relative="1" as="geometry">
            <mxPoint x="40" y="440" as="sourcePoint" />
            <mxPoint x="320" y="190" as="targetPoint" />
          </mxGeometry>
        </mxCell>
        <mxCell id="oKtfZRa2K4ia3sEcUGn5-12" value="" style="group" parent="1" vertex="1" connectable="0">
          <mxGeometry x="600" y="80" width="80" height="440" as="geometry" />
        </mxCell>
        <mxCell id="oKtfZRa2K4ia3sEcUGn5-13" value="FCM推送平台" style="rounded=0;whiteSpace=wrap;html=1;" parent="oKtfZRa2K4ia3sEcUGn5-12" vertex="1">
          <mxGeometry width="80" height="40" as="geometry" />
        </mxCell>
        <mxCell id="oKtfZRa2K4ia3sEcUGn5-14" value="" style="endArrow=none;html=1;rounded=0;entryX=0.5;entryY=1;entryDx=0;entryDy=0;" parent="oKtfZRa2K4ia3sEcUGn5-12" target="oKtfZRa2K4ia3sEcUGn5-13" edge="1">
          <mxGeometry width="50" height="50" relative="1" as="geometry">
            <mxPoint x="40" y="440" as="sourcePoint" />
            <mxPoint x="320" y="190" as="targetPoint" />
          </mxGeometry>
        </mxCell>
        <mxCell id="oKtfZRa2K4ia3sEcUGn5-15" value="" style="group" parent="1" vertex="1" connectable="0">
          <mxGeometry x="760" y="80" width="80" height="440" as="geometry" />
        </mxCell>
        <mxCell id="oKtfZRa2K4ia3sEcUGn5-16" value="应用服务端" style="rounded=0;whiteSpace=wrap;html=1;" parent="oKtfZRa2K4ia3sEcUGn5-15" vertex="1">
          <mxGeometry width="80" height="40" as="geometry" />
        </mxCell>
        <mxCell id="oKtfZRa2K4ia3sEcUGn5-17" value="" style="endArrow=none;html=1;rounded=0;entryX=0.5;entryY=1;entryDx=0;entryDy=0;" parent="oKtfZRa2K4ia3sEcUGn5-15" target="oKtfZRa2K4ia3sEcUGn5-16" edge="1">
          <mxGeometry width="50" height="50" relative="1" as="geometry">
            <mxPoint x="40" y="440" as="sourcePoint" />
            <mxPoint x="320" y="190" as="targetPoint" />
          </mxGeometry>
        </mxCell>
        <mxCell id="oKtfZRa2K4ia3sEcUGn5-18" value="" style="group" parent="1" vertex="1" connectable="0">
          <mxGeometry x="-40" y="80" width="80" height="440" as="geometry" />
        </mxCell>
        <mxCell id="oKtfZRa2K4ia3sEcUGn5-19" value="IM服务端" style="rounded=0;whiteSpace=wrap;html=1;" parent="oKtfZRa2K4ia3sEcUGn5-18" vertex="1">
          <mxGeometry width="80" height="40" as="geometry" />
        </mxCell>
        <mxCell id="oKtfZRa2K4ia3sEcUGn5-20" value="" style="endArrow=none;html=1;rounded=0;entryX=0.5;entryY=1;entryDx=0;entryDy=0;" parent="oKtfZRa2K4ia3sEcUGn5-18" target="oKtfZRa2K4ia3sEcUGn5-19" edge="1">
          <mxGeometry width="50" height="50" relative="1" as="geometry">
            <mxPoint x="40" y="440" as="sourcePoint" />
            <mxPoint x="320" y="190" as="targetPoint" />
          </mxGeometry>
        </mxCell>
        <mxCell id="oKtfZRa2K4ia3sEcUGn5-21" value="" style="shape=flexArrow;endArrow=classic;html=1;rounded=0;" parent="1" edge="1">
          <mxGeometry width="50" height="50" relative="1" as="geometry">
            <mxPoint x="-160" y="100" as="sourcePoint" />
            <mxPoint x="-40" y="100" as="targetPoint" />
          </mxGeometry>
        </mxCell>
        <mxCell id="oKtfZRa2K4ia3sEcUGn5-22" value="收到其他用户信息" style="edgeLabel;html=1;align=center;verticalAlign=middle;resizable=0;points=[];" parent="oKtfZRa2K4ia3sEcUGn5-21" vertex="1" connectable="0">
          <mxGeometry x="-0.2333" y="3" relative="1" as="geometry">
            <mxPoint as="offset" />
          </mxGeometry>
        </mxCell>
        <mxCell id="oKtfZRa2K4ia3sEcUGn5-23" value="" style="endArrow=classic;html=1;rounded=0;" parent="1" edge="1">
          <mxGeometry width="50" height="50" relative="1" as="geometry">
            <mxPoint y="360" as="sourcePoint" />
            <mxPoint x="160" y="360" as="targetPoint" />
          </mxGeometry>
        </mxCell>
        <mxCell id="oKtfZRa2K4ia3sEcUGn5-24" value="收到消息" style="edgeLabel;html=1;align=center;verticalAlign=middle;resizable=0;points=[];" parent="oKtfZRa2K4ia3sEcUGn5-23" vertex="1" connectable="0">
          <mxGeometry x="-0.15" y="1" relative="1" as="geometry">
            <mxPoint as="offset" />
          </mxGeometry>
        </mxCell>
        <mxCell id="oKtfZRa2K4ia3sEcUGn5-31" value="" style="endArrow=classic;html=1;rounded=0;" parent="1" edge="1">
          <mxGeometry width="50" height="50" relative="1" as="geometry">
            <mxPoint y="150" as="sourcePoint" />
            <mxPoint x="800" y="150" as="targetPoint" />
          </mxGeometry>
        </mxCell>
        <mxCell id="oKtfZRa2K4ia3sEcUGn5-32" value="收到消息" style="edgeLabel;html=1;align=center;verticalAlign=middle;resizable=0;points=[];" parent="oKtfZRa2K4ia3sEcUGn5-31" vertex="1" connectable="0">
          <mxGeometry x="-0.15" y="1" relative="1" as="geometry">
            <mxPoint x="-70" y="1" as="offset" />
          </mxGeometry>
        </mxCell>
        <mxCell id="oKtfZRa2K4ia3sEcUGn5-35" value="" style="endArrow=classic;html=1;rounded=0;" parent="1" edge="1">
          <mxGeometry width="50" height="50" relative="1" as="geometry">
            <mxPoint x="800" y="170" as="sourcePoint" />
            <mxPoint x="640" y="170" as="targetPoint" />
          </mxGeometry>
        </mxCell>
        <mxCell id="oKtfZRa2K4ia3sEcUGn5-36" value="发送推送" style="edgeLabel;html=1;align=center;verticalAlign=middle;resizable=0;points=[];" parent="oKtfZRa2K4ia3sEcUGn5-35" vertex="1" connectable="0">
          <mxGeometry x="-0.15" y="1" relative="1" as="geometry">
            <mxPoint x="-12" as="offset" />
          </mxGeometry>
        </mxCell>
        <mxCell id="oKtfZRa2K4ia3sEcUGn5-37" value="" style="endArrow=classic;html=1;rounded=0;" parent="1" edge="1">
          <mxGeometry width="50" height="50" relative="1" as="geometry">
            <mxPoint x="640" y="190" as="sourcePoint" />
            <mxPoint x="480" y="190" as="targetPoint" />
          </mxGeometry>
        </mxCell>
        <mxCell id="oKtfZRa2K4ia3sEcUGn5-38" value="生成系统消息" style="edgeLabel;html=1;align=center;verticalAlign=middle;resizable=0;points=[];" parent="oKtfZRa2K4ia3sEcUGn5-37" vertex="1" connectable="0">
          <mxGeometry x="-0.15" y="1" relative="1" as="geometry">
            <mxPoint x="-12" as="offset" />
          </mxGeometry>
        </mxCell>
        <mxCell id="pdDL_CSuWHw4D4F-IhAH-3" value="" style="endArrow=classic;html=1;rounded=0;" edge="1" parent="1">
          <mxGeometry width="50" height="50" relative="1" as="geometry">
            <mxPoint x="320" y="230" as="sourcePoint" />
            <mxPoint x="480" y="230" as="targetPoint" />
          </mxGeometry>
        </mxCell>
        <mxCell id="pdDL_CSuWHw4D4F-IhAH-4" value="本地通知" style="edgeLabel;html=1;align=center;verticalAlign=middle;resizable=0;points=[];" vertex="1" connectable="0" parent="pdDL_CSuWHw4D4F-IhAH-3">
          <mxGeometry x="-0.15" y="1" relative="1" as="geometry">
            <mxPoint as="offset" />
          </mxGeometry>
        </mxCell>
      </root>
    </mxGraphModel>
  </diagram>
</mxfile>
